<svg id="Laag_1" data-name="Laag 1" xmlns="http://www.w3.org/2000/svg" viewBox="0 0 1920 500"><defs><style>.cls-1{fill:none;}.cls-1,.cls-2{stroke:#f2f2f2;stroke-linecap:round;stroke-miterlimit:10;stroke-width:20px;}.cls-2{fill:#f2f2f2;}</style></defs><line class="cls-1" x1="466" y1="352" x2="639" y2="538"/><line class="cls-1" x1="316" y1="352" x2="465.59" y2="351.55"/><circle class="cls-2" cx="311" cy="351" r="23"/><line class="cls-1" x1="305.97" y1="417.12" x2="523.08" y2="650.55"/><line class="cls-1" x1="117.73" y1="417.12" x2="305.46" y2="416.55"/><circle class="cls-2" cx="111.45" cy="415.86" r="28.86"/><line class="cls-1" x1="609.72" y1="420.89" x2="826.83" y2="654.32"/><line class="cls-1" x1="421.48" y1="420.89" x2="609.21" y2="420.32"/><circle class="cls-2" cx="415.2" cy="419.64" r="28.86"/><line class="cls-1" x1="1419.29" y1="349.39" x2="1246.29" y2="535.39"/><line class="cls-1" x1="1569.29" y1="349.39" x2="1419.7" y2="348.93"/><circle class="cls-2" cx="1574.29" cy="348.39" r="23"/><line class="cls-1" x1="1579.32" y1="414.51" x2="1362.21" y2="647.93"/><line class="cls-1" x1="1767.57" y1="414.51" x2="1579.83" y2="413.94"/><circle class="cls-2" cx="1773.84" cy="413.25" r="28.86"/><line class="cls-1" x1="1275.57" y1="418.28" x2="1058.46" y2="651.7"/><line class="cls-1" x1="1463.82" y1="418.28" x2="1276.08" y2="417.71"/><circle class="cls-2" cx="1470.09" cy="417.02" r="28.86"/></svg>